<svg width="23" height="20" viewBox="0 0 23 20" fill="none" xmlns="http://www.w3.org/2000/svg">
<path d="M3.75 13V8H17.5V13H3.75ZM21.25 8C21.9141 8 22.5 8.58594 22.5 9.25V11.75C22.5 12.4531 21.9141 13 21.25 13V14.25C21.25 15.6562 20.1172 16.75 18.75 16.75H2.5C1.09375 16.75 0 15.6562 0 14.25V6.75C0 5.38281 1.09375 4.25 2.5 4.25H18.75C20.1172 4.25 21.25 5.38281 21.25 6.75V8ZM19.375 14.25V6.75C19.375 6.4375 19.0625 6.125 18.75 6.125H2.5C2.14844 6.125 1.875 6.4375 1.875 6.75V14.25C1.875 14.6016 2.14844 14.875 2.5 14.875H18.75C19.0625 14.875 19.375 14.6016 19.375 14.25Z" fill="#4CD865"/>
<path d="M21.25 8C21.9141 8 22.5 8.58594 22.5 9.25V11.75C22.5 12.4531 21.9141 13 21.25 13V14.25C21.25 15.6562 20.1172 16.75 18.75 16.75H2.5C1.09375 16.75 0 15.6562 0 14.25V6.75C0 5.38281 1.09375 4.25 2.5 4.25H18.75C20.1172 4.25 21.25 5.38281 21.25 6.75V8ZM19.375 14.25V6.75C19.375 6.4375 19.0625 6.125 18.75 6.125H2.5C2.14844 6.125 1.875 6.4375 1.875 6.75V14.25C1.875 14.6016 2.14844 14.875 2.5 14.875H18.75C19.0625 14.875 19.375 14.6016 19.375 14.25Z" fill="#333333"/>
</svg>
