<svg width="25" height="21" viewBox="0 0 25 21" fill="none" xmlns="http://www.w3.org/2000/svg">
<path d="M9.375 10.5C10.3906 10.5 11.25 11.3594 11.25 12.375V18.625C11.25 19.6797 10.3906 20.5 9.375 20.5C8.32031 20.5 7.5 19.6797 7.5 18.625V12.375C7.5 11.3594 8.32031 10.5 9.375 10.5ZM3.125 15.5C4.14062 15.5 5 16.3594 5 17.375V18.625C5 19.6797 4.14062 20.5 3.125 20.5C2.07031 20.5 1.25 19.6797 1.25 18.625V17.375C1.25 16.3594 2.07031 15.5 3.125 15.5ZM15.625 5.5C16.6406 5.5 17.5 6.35938 17.5 7.375V18.625C17.5 19.6797 16.6406 20.5 15.625 20.5C14.5703 20.5 13.75 19.6797 13.75 18.625V7.375C13.75 6.35938 14.5703 5.5 15.625 5.5ZM21.875 0.5C22.8906 0.5 23.75 1.35938 23.75 2.375V18.625C23.75 19.6797 22.8906 20.5 21.875 20.5C20.8203 20.5 20 19.6797 20 18.625V2.375C20 1.35938 20.8203 0.5 21.875 0.5Z" fill="#CBCBCB"/>
</svg>
