<svg width="23" height="21" viewBox="0 0 23 21" fill="none" xmlns="http://www.w3.org/2000/svg">
<path d="M8.375 10.5C9.39062 10.5 10.25 11.3594 10.25 12.375V18.625C10.25 19.6797 9.39062 20.5 8.375 20.5C7.32031 20.5 6.5 19.6797 6.5 18.625V12.375C6.5 11.3594 7.32031 10.5 8.375 10.5ZM2.125 15.5C3.14062 15.5 4 16.3594 4 17.375V18.625C4 19.6797 3.14062 20.5 2.125 20.5C1.07031 20.5 0.25 19.6797 0.25 18.625V17.375C0.25 16.3594 1.07031 15.5 2.125 15.5ZM14.625 5.5C15.6406 5.5 16.5 6.35938 16.5 7.375V18.625C16.5 19.6797 15.6406 20.5 14.625 20.5C13.5703 20.5 12.75 19.6797 12.75 18.625V7.375C12.75 6.35938 13.5703 5.5 14.625 5.5ZM20.875 0.5C21.8906 0.5 22.75 1.35938 22.75 2.375V18.625C22.75 19.6797 21.8906 20.5 20.875 20.5C19.8203 20.5 19 19.6797 19 18.625V2.375C19 1.35938 19.8203 0.5 20.875 0.5Z" fill="#333333"/>
</svg>
