<svg width="32" height="21" viewBox="0 0 32 21" fill="none" xmlns="http://www.w3.org/2000/svg">
<path d="M30.4609 2.13281C31.1172 2.51562 31.5 3.22656 31.5 3.99219V17.0625C31.5 17.8281 31.1172 18.5391 30.4609 18.9219C30.1328 19.1406 29.6953 19.3047 29.3125 19.3047C28.9844 19.3047 28.6562 19.1953 28.3828 19.0859L22.75 16.4609V17.5C22.75 19.4688 21.1641 21 19.25 21H3.5C1.53125 21 0 19.4688 0 17.5V3.5C0 1.58594 1.53125 0 3.5 0H19.25C21.1641 0 22.75 1.58594 22.75 3.5V4.59375L28.3828 1.96875C29.0391 1.64062 29.8594 1.69531 30.4609 2.13281ZM20.125 17.5V3.5C20.125 3.0625 19.6875 2.625 19.25 2.625H3.5C3.00781 2.625 2.625 3.0625 2.625 3.5V17.5C2.625 17.9922 3.00781 18.375 3.5 18.375H19.25C19.6875 18.375 20.125 17.9922 20.125 17.5ZM28.875 16.4062V4.64844L22.75 7.4375V13.6172L28.875 16.4062Z" fill="#0275FF"/>
</svg>
