<svg width="27" height="19" viewBox="0 0 27 19" fill="none" xmlns="http://www.w3.org/2000/svg">
<path d="M13.4609 13.2891C14.8672 13.2891 15.9609 14.3828 15.9609 15.7891C15.9609 17.1562 14.8672 18.2891 13.4609 18.2891C12.0938 18.2891 10.9609 17.1562 10.9609 15.7891C10.9609 14.3828 12.0938 13.2891 13.4609 13.2891ZM13.4609 7C16.2344 7 18.8516 8.01562 20.9219 9.8125C21.4297 10.2812 21.4688 11.0625 21.0391 11.6094C20.7656 11.8828 20.4531 12 20.1016 12C19.7891 12 19.5156 11.9219 19.2812 11.6875C17.6797 10.2812 15.6094 9.5 13.4609 9.5C11.3516 9.5 9.28125 10.2812 7.67969 11.6875C7.17188 12.1562 6.39062 12.1172 5.92188 11.6094C5.45312 11.0625 5.53125 10.2812 6.03906 9.8125C8.10938 8.01562 10.7266 7 13.4609 7ZM25.6094 5.63281C26.0781 6.10156 26.1172 6.92188 25.6484 7.39062C25.375 7.66406 25.0625 7.78125 24.7109 7.78125C24.4375 7.78125 24.125 7.66406 23.8516 7.42969C21.0391 4.73438 17.3672 3.25 13.4609 3.25C9.59375 3.25 5.88281 4.73438 3.10938 7.42969C2.60156 7.9375 1.82031 7.89844 1.3125 7.39062C0.84375 6.92188 0.882812 6.10156 1.35156 5.63281C4.63281 2.50781 8.92969 0.75 13.4609 0.75C18.0312 0.75 22.3281 2.50781 25.6094 5.63281Z" fill="#333333"/>
</svg>
